<?xml version="1.0" encoding="utf-8"?>
<!-- Generator: Adobe Illustrator 23.0.3, SVG Export Plug-In . SVG Version: 6.00 Build 0)  -->
<svg version="1.1" id="Layer_1" xmlns="http://www.w3.org/2000/svg" xmlns:xlink="http://www.w3.org/1999/xlink" x="0px" y="0px"
	 viewBox="0 0 972.9 261.1" style="enable-background:new 0 0 972.9 261.1;" xml:space="preserve">
<style type="text/css">
	.st0{display:none;}
	.st1{display:inline;}
	.st2{clip-path:url(#SVGID_2_);fill:none;}
	.st3{display:inline;clip-path:url(#SVGID_2_);fill:#CE1111;}
	.st4{display:none;fill:#752525;}
	.st5{fill:#1D223F;}
</style>
<g class="st0">
	<defs>
		<rect id="SVGID_1_" x="-373.2" y="-18.6" width="1353.7" height="315"/>
	</defs>
	<clipPath id="SVGID_2_" class="st1">
		<use xlink:href="#SVGID_1_"  style="overflow:visible;"/>
	</clipPath>
	<rect x="-373.2" y="-18.6" class="st2" width="1353.7" height="315"/>
	<path class="st3" d="M-140.1,217.8v-19.2c0-4.2-3.5-7.7-7.7-7.7h-87.8l92.4-112.8V51.7h-137.1c-4.2,0-7.7,3.5-7.7,7.7v19.2
		c0,4.2,3.5,7.7,7.7,7.7h83.1l-92.4,112.8v26.4h141.8C-143.6,225.5-140.1,222-140.1,217.8"/>
</g>
<path class="st4" d="M-313.3,294.4h196.7c31.5,0,57.2-25.6,57.3-57.1V40.5c0-31.5-25.7-57.2-57.2-57.2h-196.8
	c-31.5,0-57.2,25.7-57.2,57.2v196.7C-370.5,268.7-344.8,294.4-313.3,294.4 M-333.2,235.6V42.2c0-11.9,9.7-21.6,21.6-21.6h193.4
	c11.9,0,21.6,9.7,21.6,21.6v193.4c0,11.9-9.7,21.6-21.6,21.6h-193.4C-323.5,257.2-333.2,247.5-333.2,235.6"/>
<g>
	<polygon class="st5" points="116.3,94.2 116.3,68.3 5.7,68.3 5.7,100.7 66,100.7 0,182.6 0,207.5 117.3,207.5 117.3,175 50.8,175 	
		"/>
	<path class="st5" d="M174.3,205c8.6,3.8,17.5,5.7,27.2,5.7s18.8-1.9,27.1-5.7c8.6-3.7,15.8-8.8,22.2-15.5
		c6.2-6.5,11.3-14.2,14.9-23.1c3.7-8.7,5.6-18.2,5.6-28.4c0-9.9-1.9-19.4-5.6-28.4c-3.7-9-8.6-16.5-14.9-23.2l0,0
		c-6.4-6.6-13.9-11.8-22.2-15.5c-8.7-3.8-17.8-5.7-27.1-5.7c-9.7,0-18.6,1.9-27.2,5.7c-8.4,3.7-15.8,8.9-22,15.4
		s-11.3,14.2-14.9,23.1c-3.7,8.7-5.6,18.2-5.6,28.4c0,9.9,1.9,19.4,5.6,28.4c3.8,9,8.7,16.5,14.9,23
		C158.4,195.9,165.8,201.2,174.3,205 M167.1,137.8c0-5.5,0.9-11,2.7-15.8c1.9-5,4.4-9.3,7.4-12.8c3-3.4,6.7-6.2,11-8.4
		c4.1-2,8.5-3,13-3c4.7,0,9,1,13,3.1c4.1,2,7.7,4.7,10.9,8.4c3.1,3.6,5.6,7.9,7.3,12.8c1.8,4.8,2.7,10.3,2.7,15.8s-0.9,11-2.7,15.8
		c-1.9,5.1-4.4,9.4-7.4,13c-3.1,3.6-6.7,6.4-10.9,8.6c-4.1,2-8.5,3-13,3c-4.7,0-9-1-12.9-3c-4.4-2.3-8.1-5.2-11.1-8.6
		c-3-3.5-5.5-7.8-7.4-12.9C168,148.7,167.1,143.3,167.1,137.8"/>
	<polygon class="st5" points="324.7,68.3 289.4,68.3 289.4,207.5 325,207.5 	"/>
	<path class="st5" d="M306.9,52.1c6.1,0,11.2-2.2,15.1-6.4c4.1-4.2,6.2-9.4,6.2-15.2c0-5.9-2-10.9-6.2-15c-4-4.1-9.2-6.3-15.1-6.3
		c-5.9,0-10.9,2-15,6.2c-4.2,3.9-6.3,9-6.3,15.1s2.1,11.3,6.2,15.2C295.9,49.9,301.1,52.1,306.9,52.1"/>
	<path class="st5" d="M483.7,0h-35.4v76.9c-3.5-2.6-7.2-4.8-11.1-6.6c-7.3-3.3-15.8-4.9-25.4-4.9c-9.7,0-18.7,1.9-26.8,5.7
		c-8,3.7-15.2,8.9-21.2,15.6c-6,6.5-10.7,14.3-14.1,23.1c-3.4,8.7-5.1,18.2-5.1,28.2c0,9.8,1.7,19.3,5.1,28.2
		c3.5,8.8,8.2,16.6,14.1,23.1c6.1,6.6,13.2,11.8,21.2,15.6c8.3,3.8,17.4,5.7,26.8,5.7c9.3,0,17.7-1.7,24.9-4.9
		c4.2-1.9,8-4.1,11.6-6.8l0.1,9.8l35.3,0.3L483.7,0L483.7,0z M445.3,119c1.8,5.2,2.8,11.6,2.8,19.1c0,6.9-1,13.2-2.8,18.3
		s-4.3,9.2-7.2,12.4c-3.3,3.4-6.8,5.8-10.7,7.2c-4.1,1.6-8.6,2.4-13.5,2.4c-4.4,0-8.8-1-13-3c-4.1-1.9-7.6-4.7-10.8-8.5
		c-3.1-3.5-5.5-7.9-7.3-12.9c-1.9-5.2-2.8-10.4-2.8-15.9s0.9-11,2.7-15.8c1.9-5.1,4.3-9.3,7.3-12.7c3.1-3.5,6.6-6.2,10.9-8.3
		c4-2,8.4-2.9,13-2.9c5,0,9.6,0.7,13.8,2.1c3.7,1.2,7.2,3.3,10.4,6.5C441.1,110,443.5,114,445.3,119"/>
	<path class="st5" d="M629.8,86.6L629.8,86.6c-5.9-6.5-13.1-11.8-21.4-15.6c-8.4-3.8-17.5-5.7-27-5.7c-9.2,0-17.5,1.6-24.8,4.7
		c-6.2,2.6-12,6.3-17.2,11V68.3h-29.7v192.8h35V199c3.5,2.7,7.3,4.9,11.4,6.8c7.3,3.3,15.8,4.9,25.2,4.9c9.7,0,18.8-1.9,27-5.7
		c8.4-3.8,15.6-9,21.4-15.6c6-6.5,10.7-14.3,14.1-23.1c3.4-8.7,5.1-18.2,5.1-28.2c0-9.8-1.7-19.3-5.1-28.2
		C640.5,101.3,635.8,93.4,629.8,86.6 M613.1,137.8c0,5.5-0.9,11-2.8,15.9c-1.7,4.8-4.1,9-7.3,12.9c-3.1,3.5-6.8,6.5-10.9,8.5
		c-4.1,2-8.5,3-13,3c-4.7,0-9.3-0.7-13.6-2.2c-4.1-1.4-7.6-3.6-10.6-6.6c-3.1-3.1-5.6-7.2-7.2-12c-1.8-5.3-2.8-11.8-2.8-19.3
		c0-7,0.9-13.2,2.7-18.1c1.8-5,4.3-9.1,7.4-12.2c3-3.2,6.6-5.5,10.6-7c4.5-1.6,9-2.4,13.5-2.4c4.6,0,9,0.9,13,2.8s7.6,4.6,10.9,8.3
		c3.2,3.7,5.6,7.8,7.3,12.7C612.2,127,613.1,132.1,613.1,137.8"/>
	<path class="st5" d="M772.6,79.3c-5.3-4.1-11.3-7.4-15.6-9.2c-7.3-3-14.9-4.6-22.7-4.6c-9.7,0-18.6,1.9-27.2,5.7
		c-8.4,3.7-15.8,8.9-22,15.4c-6.2,6.4-11.3,14.2-14.9,23.1c-3.7,8.7-5.6,18.2-5.6,28.4c0,9.9,1.9,19.4,5.6,28.4
		c3.8,9,8.7,16.6,14.9,23c6.1,6.5,13.5,11.7,22,15.6c8.6,3.8,17.5,5.7,27.2,5.7c7.9,0,15.7-1.7,23.2-5c5-2.2,10.6-5.5,15.3-9.1
		l-0.1,10.8H804V68.3l-31.1,0.2L772.6,79.3z M734.3,178.3c-4.5,0-8.9-1-12.9-3c-4.3-2.1-7.9-4.9-10.7-8.4c-3-3.6-5.5-8-7.4-13
		c-1.9-5.2-2.8-10.4-2.8-15.9s0.9-11,2.8-15.9c1.6-4.6,3.9-8.8,7.2-12.9c3-3.5,6.7-6.4,10.8-8.5c4.2-2.1,8.4-3,12.9-3s8.9,1,12.9,3
		c4.3,2.1,7.9,4.9,10.7,8.4c3,3.6,5.5,8,7.4,13c1.9,5.2,2.8,10.4,2.8,15.9s-0.9,11-2.8,15.9c-1.6,4.6-3.9,8.8-7.2,12.9
		c-3,3.5-6.7,6.4-10.8,8.5C743.2,177.3,738.8,178.3,734.3,178.3"/>
	<polygon class="st5" points="933.9,68.3 897.4,146.5 862.1,68.3 820.7,68.3 878,188.2 845.8,259.2 884.9,259.2 972.9,68.3 	"/>
</g>
</svg>
